<?xml version="1.0" encoding="utf-8"?>
<!-- Generator: Adobe Illustrator 15.0.0, SVG Export Plug-In . SVG Version: 6.00 Build 0)  -->
<!DOCTYPE svg PUBLIC "-//W3C//DTD SVG 1.1//EN" "http://www.w3.org/Graphics/SVG/1.1/DTD/svg11.dtd">
<svg version="1.1" xmlns="http://www.w3.org/2000/svg" xmlns:xlink="http://www.w3.org/1999/xlink" x="0px" y="0px" width="450px"
	 height="450px" viewBox="0 0 450 450" enable-background="new 0 0 450 450" xml:space="preserve">
<g id="Layer_1">
</g>
<g id="Layer_2">
	<g id="newLog">
		<g id="Layer_1_1_">
			<g>
				<path fill-rule="evenodd" clip-rule="evenodd" fill="#FFFFFF" d="M390.903,103.812c4.426,2.6,7.938,6.132,10.538,10.595
					c2.522,4.424,3.784,9.16,3.784,14.205v174.764c0,5.046-1.262,9.801-3.784,14.263c-2.6,4.425-6.112,7.957-10.538,10.597
					l-151.244,87.381c-4.463,2.524-9.218,3.784-14.263,3.784c-5.123,0-9.916-1.26-14.379-3.784L59.655,328.235
					c-4.424-2.563-7.937-6.056-10.537-10.479c-2.562-4.464-3.843-9.258-3.843-14.381V128.612c0-5.123,1.281-9.897,3.843-14.321
					c2.6-4.464,6.113-7.957,10.537-10.479L210.9,16.488c4.463-2.6,9.256-3.9,14.379-3.9c5.046,0,9.801,1.3,14.263,3.9
					L390.903,103.812z"/>
			</g>
		</g>
		<g id="Layer_2_1_">
		</g>
		<g id="Layer_4_2_">
			<g>
				<path fill="#A10000" d="M194.656,102.625c1.657-0.205,3.844-0.641,6.56-1.307c2.682-0.616,4.895-0.53,6.637,0.256
					c1.76,0.786,3.604,1.631,5.536,2.537c1.948,0.872,3.135,1.751,3.562,2.64c0.427,0.923,0.504,1.632,0.23,2.127
					c-0.239,0.563-0.461,1.247-0.666,2.05c-0.205,0.786-0.316,1.221-0.333,1.306c0.017,0.308,0.136,1.188,0.358,2.64
					c0.358,1.196,0.701,2.443,1.026,3.742c-0.206,1.126-0.616,2.058-1.231,2.792c-0.034,0.53,0.291,1.453,0.974,2.768
					c0.667,1.333,1.162,2.341,1.487,3.024c0.7,0.939,0.777,1.64,0.231,2.101c-0.769,0.598-1.46,0.879-2.076,0.846
					c-0.358,0.085-0.462,0.29-0.308,0.614c-0.034,0.615-0.026,1.085,0.025,1.41l-0.82,0.333l-0.256,1.589
					c0.017,0.034,0.06,0.12,0.128,0.256l4.972,5.792l1.409-2.742c0-0.085,0.273-0.154,0.82-0.206
					c0.547-0.068,1.341,0.308,2.385,1.127c0.975,0.889,1.408,1.555,1.305,1.999c-0.085,0.461-0.17,0.692-0.256,0.692
					c-0.032,0.205-0.468,0.914-1.306,2.127c-0.82,1.179-1.786,1.615-2.896,1.307c-0.563-0.375-1.537-1.469-2.921-3.28
					c-1.367-1.812-2.648-3.563-3.844-5.253c-0.222,0.273-0.325,0.418-0.307,0.435c0.017,0.12,0.025,0.727,0.025,1.82
					c-0.017,1.111-0.29,2.135-0.82,3.076c-0.598,0.785-1.298,1.127-2.101,1.024c-0.786-0.103-1.486-0.18-2.101-0.23
					c-0.769,0-1.948,0.111-3.536,0.333c-1.572,0.188-2.538,0.599-2.896,1.23c-0.034,0.051-0.06,0.103-0.078,0.154
					c-0.102,0.41-0.316,0.803-0.641,1.179c-0.529,0.564-1.392,1.512-2.588,2.844c-1.076,1.196-2.502,2.332-4.28,3.409
					c0.325,0.615,0.521,1,0.589,1.153l-0.666,4.612c0.136,0-0.265,0.633-1.204,1.896c-0.445,0.598-0.777,2.033-1,4.306
					c0.358,0.461,0.734,0.965,1.127,1.512c1.418,1.931,2.383,3.51,2.896,4.741c0.837,2.324,2.399,4.468,4.689,6.433
					c1.948,1.537,3.204,2.58,3.768,3.126c2.238,0.222,4.638,0.948,7.201,2.178c1.862,0.632,3.938,1.256,6.227,1.871
					c2.272,0.599,4.322,1.068,6.15,1.41c2.289,0.478,4.673,1.204,7.15,2.178c1.913,0.769,3.143,1.273,3.69,1.512
					c1.708-1.127,3.007-2.092,3.895-2.896c0.563-0.479,1.503-1.315,2.818-2.512c0.649-0.563,1.162-0.957,1.539-1.179l-0.025-0.025
					c-0.036-0.034-0.053-0.094-0.053-0.179c0.102,0.017,0.213,0.034,0.334,0.051c0.153-0.085,0.281-0.128,0.384-0.128l0.076,0.128
					c0,0.017-0.017,0.052-0.051,0.103c1.196,0.291,2.982,0.923,5.356,1.897c2.973,1.23,4.834,2.007,5.586,2.332
					c0.188-0.052,0.394,0.051,0.615,0.307c0.257,0.274,0.452,0.615,0.589,1.026c0.291,0.375,0.734,1.024,1.334,1.947
					c0.05,0.051,0.238,0.273,0.563,0.666l2.972-0.641l1.871-8.533c-0.103-0.513,0.358-1.495,1.384-2.947
					c0.649-0.547,1.368-1.315,2.151-2.307c0.787-0.957,1.213-1.486,1.282-1.588l7.534-52.713c-0.016-0.137,0.145-0.751,0.487-1.845
					c0.342-1.076,1.015-1.751,2.024-2.024c1.076-0.103,4.63-0.256,10.66-0.462c6.014-0.205,11.909-0.401,17.683-0.589
					c5.774-0.205,8.867-0.308,9.276-0.308c0.342,0.068,1.956,0.735,4.843,1.999c2.904,1.213,5.102,2.443,6.586,3.69
					c0.975,0.701,2.905,4.725,5.791,12.07c2.889,7.329,5.562,18.366,8.022,33.109c2.46,14.761,3.484,33.63,3.075,56.608
					c-1.162,23.08-5.398,42.539-12.711,58.377c-7.328,15.819-14.548,27.83-21.653,36.03c-7.159,8.149-10.986,12.24-11.481,12.276
					h-36.978c0.272-0.121,1.682-2.863,4.228-8.228c2.528-5.314,4.477-12.429,5.843-21.348c1.384-8.918,0.461-18.801-2.768-29.647
					c-2.118-6.613-3.784-11.609-4.997-14.993c-2.153-5.994-4.041-9.958-5.664-11.89c-3.775-4.545-7.842-8.535-12.199-11.968
					c-3.858-2.955-7.797-6.628-11.813-11.02c0.036,0.103,0.069,0.205,0.104,0.308c1.009,3.349,1.231,6.672,0.668,9.969
					c-0.446,2.323-0.702,6.432-0.771,12.327c-0.016,1.777-0.016,3.551,0,5.328c0,4.204,0.061,8.449,0.181,12.738
					c0.187,6.115,0.453,10.677,0.794,13.683c0.394,3.026,1.102,7.339,2.127,12.942c1.043,5.62,2.033,10.79,2.973,15.504
					c0.906,4.699,1.393,7.192,1.461,7.483c0.018,0.154-0.419,0.563-1.307,1.23c-0.461,0.323-1.042,0.724-1.743,1.202
					c-1.229,0.616-2.708,1.188-4.433,1.719c-1.692,0.528-2.623,0.803-2.794,0.819c-0.119,0.016-0.229,0.042-0.333,0.076
					c0.068,0.052,0.146,0.104,0.231,0.153l0.357,0.079c0.274,0.068,1.035,0.223,2.282,0.461c1.263,0.307,2.588,0.948,3.972,1.922
					c1.4,0.975,3.441,2.033,6.124,3.178c2.837,1.023,5.639,1.502,8.406,1.436c2.784-0.068,4.962-0.121,6.534-0.153
					c1.452,0.203,2.478,0.904,3.075,2.099c0.58,1.18,0.854,1.855,0.82,2.026c0.034-0.103-2.298,0.639-6.996,2.229
					c-1.675,0.563-3.964,1.068-6.869,1.511c-2.921,0.443-5.714,0.794-8.378,1.05c-2.648,0.258-4.452,0.387-5.408,0.387
					c-1.349-0.085-2.852-0.488-4.51-1.206c-1.64-0.698-2.528-1.103-2.665-1.203v1.461h-13.684c-0.103-0.137-0.103-1.019,0-2.64
					c0.136-1.042,0.315-2.835,0.538-5.382c0.256-2.545,0.393-3.965,0.41-4.254c0.052-0.086,0.111-0.164,0.18-0.229h-1.563
					c0.017-0.121,0.102-0.771,0.256-1.95c0.136-1.211,0.188-2.365,0.153-3.459c-0.017-0.306-0.068-0.752-0.153-1.331
					c-0.239-1.607-0.675-4.289-1.307-8.047c-0.888-5.247-1.768-10.354-2.64-15.325c-0.444-2.512-0.777-4.434-1-5.765
					c-0.427,0.801-1.093,1.698-1.999,2.688c-1.025,1.111-2.161,2.761-3.409,4.947c-1.093,2.033-2.323,4.646-3.689,7.84
					c-1.35,3.196-2.537,6.093-3.563,8.689c-0.991,2.58-1.503,3.944-1.538,4.1c-0.222,0.17-1.298,0-3.229-0.512
					c0.393,0.973,0.871,2.127,1.435,3.458c0.581,1.332,1.555,2.82,2.922,4.46c2.032,2.374,3.707,4.092,5.022,5.15
					c1.316,1.059,2.819,1.682,4.51,1.869c1.538,0.429,2.46,1.488,2.768,3.181c0.342,1.673,0.47,2.63,0.384,2.869
					c0.017,0.052-0.555,0.181-1.717,0.384c-1.145,0.187-2.913,0.016-5.305-0.512c-2.767-0.804-6.262-2.282-10.481-4.434
					c-4.202-2.153-6.996-3.672-8.379-4.562c-1.076-0.854-2.102-2.035-3.076-3.537c-0.974-1.504-1.495-2.341-1.563-2.512l-0.82,1.23
					l-7.124-4.741v4.356l11.121,11.097h-35.338l11.122-11.097v-35.234c-10.438-2.256-19.391-6.859-26.856-13.813
					c-10.575-9.822-18.682-21.867-24.319-36.133c-5.672-14.317-9.379-28.36-11.122-42.129c-1.691-13.514-0.803-25.636,2.666-36.364
					c3.468-10.763,8.781-19.023,15.939-24.781c7.142-5.774,15.359-7.978,24.653-6.612c8.747,1.743,13.172,5.681,13.274,11.813
					c0.12,6.083-1.598,13.224-5.151,21.424c-3.537,8.166-6.39,16.221-8.56,24.165c-2.17,11.788-2.383,21.022-0.64,27.702
					c0.034-0.256,0.068-0.512,0.103-0.769c0.375-2.956,0.768-5.919,1.179-8.893c0.375-2.973,0.624-5.227,0.743-6.765
					c0.137-1.555,0.718-3.785,1.743-6.688c1.008-2.904,2.127-5.774,3.358-8.611c1.229-2.835,2.22-4.946,2.972-6.33
					c0.718-1.349,1.521-3.314,2.409-5.894c0.889-2.579,1.811-5.056,2.768-7.431c0.957-2.392,1.871-4.007,2.742-4.844
					c1.623-1.213,4.375-2.87,8.252-4.972c3.896-2.083,6.936-3.536,9.123-4.356c1.982-0.769,3.938-1.649,5.868-2.639
					c1.914-1.025,2.947-1.581,3.101-1.666l0.154-0.718l2.64-2.87c0.034,0.035,0.128,0.153,0.282,0.359
					c0.29-0.65,0.512-1.162,0.667-1.538c0.615-1.555,0.845-2.605,0.691-3.152c-0.291-0.239-0.581-1.059-0.871-2.46
					c-0.7-1.725-1.179-3.135-1.435-4.228c0.017-0.53-0.051-1.478-0.205-2.845c-0.17-1.367-0.273-2.136-0.308-2.307
					c-0.119,0.325-0.119-0.649,0-2.921c0.206-1.418,0.539-2.819,1-4.203c0.461-1.367,0.727-2.11,0.794-2.229
					c0.752-2.289,2.221-3.903,4.408-4.843C191.547,103.214,192.999,102.83,194.656,102.625z M196.449,195.187
					c-1.451-0.615-3.237-1.58-5.356-2.895c-0.906-0.564-1.768-1.111-2.588-1.64c-1.042,3.399-1.965,5.919-2.768,7.559
					c-0.922,1.879-1.666,4.041-2.229,6.483c-0.581,2.443-0.958,4.511-1.128,6.202c-0.017,0.342-0.034,0.684-0.051,1.025
					c0.427-0.034,0.88-0.061,1.357-0.077c3.024-0.171,5.86-0.325,8.509-0.462c2.614-0.136,4.006-0.205,4.177-0.205
					c0.034,0,0.06,0,0.077,0c4.408,0.034,9.183,0.222,14.326,0.564c5.159,0.324,9.738,0.717,13.736,1.179
					c1.812,0.222,3.307,0.444,4.484,0.666c-3.689-4.493-6.014-7.56-6.971-9.2c-0.922-1.605-1.443-2.981-1.563-4.125
					c-1.042-0.222-2.109-0.47-3.203-0.743c-2.528-0.632-4.681-1.162-6.458-1.589c-1.828-0.375-3.741-0.649-5.74-0.82
					c-1.965-0.171-3.349-0.248-4.152-0.231c-0.632,0.052-1.153,0.026-1.563-0.076c-0.375-0.12-0.999-0.53-1.87-1.23
					c-0.069-0.052-0.137-0.103-0.206-0.154C196.979,195.366,196.706,195.29,196.449,195.187z M172.002,283.905
					c-0.222,0-0.444-0.01-0.666-0.026v9.328c0.17-0.203,0.358-0.427,0.563-0.666c1.879-2.203,3.862-4.587,5.946-7.151
					c0.632-0.75,1.204-1.451,1.717-2.101C177.153,283.632,174.633,283.837,172.002,283.905z M171.336,298.539v6.252
					c1.247-1.504,2.22-2.708,2.921-3.613C173.147,300.237,172.173,299.358,171.336,298.539z M249.367,190.472
					c-0.017,0.46-0.11,0.939-0.282,1.435c2.17-0.461,3.999-0.854,5.484-1.179l0.256-0.051c-0.427-0.358-0.759-0.631-0.998-0.819
					c-0.205,0-0.813-0.009-1.819-0.026l-2.896-0.128C249.282,189.959,249.367,190.215,249.367,190.472z"/>
			</g>
		</g>
	</g>
</g>
</svg>
