<?xml version="1.0" encoding="utf-8"?>
<!-- Generator: Adobe Illustrator 15.0.0, SVG Export Plug-In . SVG Version: 6.00 Build 0)  -->
<!DOCTYPE svg PUBLIC "-//W3C//DTD SVG 1.1//EN" "http://www.w3.org/Graphics/SVG/1.1/DTD/svg11.dtd">
<svg version="1.1" xmlns="http://www.w3.org/2000/svg" xmlns:xlink="http://www.w3.org/1999/xlink" x="0px" y="0px" width="450px"
	 height="450px" viewBox="0 0 450 450" enable-background="new 0 0 450 450" xml:space="preserve">
<symbol  id="newLog" viewBox="-153.2 -351.15 309.15 349.4">
	<g id="Layer_1_3_">
		<g>
			<path fill-rule="evenodd" clip-rule="evenodd" fill="#A10000" d="M143.65-80.1c3.8-2.233,6.817-5.267,9.05-9.1
				c2.167-3.8,3.25-7.867,3.25-12.2v-150.1c0-4.333-1.083-8.417-3.25-12.25c-2.233-3.8-5.25-6.833-9.05-9.1L13.75-347.9
				c-3.833-2.167-7.917-3.25-12.25-3.25c-4.4,0-8.517,1.083-12.35,3.25l-130,75.05c-3.8,2.2-6.816,5.2-9.05,9
				c-2.2,3.833-3.3,7.95-3.3,12.35v150.1c0,4.4,1.1,8.5,3.3,12.3c2.233,3.833,5.25,6.833,9.05,9l129.9,75
				C-7.117-2.867-3-1.75,1.4-1.75c4.333,0,8.417-1.117,12.25-3.35L143.65-80.1z"/>
		</g>
		<g>
			<path fill-rule="evenodd" clip-rule="evenodd" fill="#FFFFFF" d="M25.05-141.95l-0.2-0.05c-1.067-0.233-2.434-0.517-4.1-0.85
				c0.133,0.333,0.2,0.684,0.2,1.05c0,0.2-0.067,0.4-0.2,0.6l2.2-0.1c0.767,0,1.233,0,1.4,0
				C24.517-141.467,24.75-141.683,25.05-141.95z M75.9-86.6c-2.167,0.967-3.383,1.483-3.65,1.55c-0.333,0-2.683-0.083-7.05-0.25
				c-4.4-0.133-8.867-0.284-13.4-0.45c-4.566-0.133-7.267-0.25-8.1-0.35c-0.767-0.2-1.284-0.7-1.55-1.5
				c-0.233-0.833-0.35-1.316-0.35-1.45L36.05-129c-0.033-0.067-0.367-0.483-1-1.25c-0.566-0.733-1.083-1.3-1.55-1.7
				c-0.8-1.1-1.15-1.85-1.05-2.25L31-140.7l-2.25-0.45c-0.267,0.3-0.417,0.467-0.45,0.5c-0.433,0.733-0.767,1.217-1,1.45
				c-0.1,0.333-0.25,0.6-0.45,0.8c-0.167,0.167-0.317,0.233-0.45,0.2c-0.566,0.267-1.967,0.867-4.2,1.8
				c-1.8,0.733-3.167,1.217-4.1,1.45l0.05,0.05l-0.05,0.15c-0.1,0-0.217-0.05-0.35-0.15c-0.067,0.033-0.15,0.05-0.25,0.05
				c0-0.066,0.017-0.1,0.05-0.1c-0.233-0.2-0.6-0.517-1.1-0.95c-1-0.9-1.717-1.533-2.15-1.9c-0.667-0.6-1.667-1.317-3-2.15
				c-0.367,0.167-1.283,0.534-2.75,1.1c-1.867,0.733-3.683,1.283-5.45,1.65c-1.367,0.267-2.917,0.617-4.65,1.05
				c-1.733,0.467-3.317,0.95-4.75,1.45c-1.934,0.934-3.75,1.483-5.45,1.65c-0.4,0.433-1.35,1.216-2.85,2.35
				c-1.767,1.5-2.95,3.133-3.55,4.9c-0.4,0.933-1.117,2.133-2.15,3.6c-0.333,0.4-0.617,0.767-0.85,1.1
				c0.1,1.767,0.333,2.867,0.7,3.3c0.7,0.966,1,1.45,0.9,1.45l0.55,3.5c-0.1,0.133-0.25,0.417-0.45,0.85
				c1.367,0.833,2.434,1.7,3.2,2.6c0.933,1.033,1.6,1.75,2,2.15c0.267,0.3,0.417,0.6,0.45,0.9c0.033,0.033,0.05,0.083,0.05,0.15
				c0.3,0.467,1.05,0.767,2.25,0.9c1.167,0.167,2.05,0.25,2.65,0.25c0.467-0.034,1-0.1,1.6-0.2c0.633-0.067,1.167,0.2,1.6,0.8
				c0.4,0.7,0.6,1.467,0.6,2.3c0,0.833,0,1.3,0,1.4c0,0.033,0.083,0.133,0.25,0.3c0.867-1.267,1.833-2.583,2.9-3.95
				c1.066-1.333,1.816-2.167,2.25-2.5c0.833-0.2,1.55,0.133,2.15,1c0.633,0.933,0.967,1.483,1,1.65c0.1,0,0.167,0.183,0.2,0.55
				c0.066,0.3-0.267,0.8-1,1.5c-0.8,0.6-1.417,0.883-1.85,0.85c-0.4-0.033-0.6-0.1-0.6-0.2l-1.05-2.05l-3.8,4.35l-0.05,0.2l0.2,1.25
				l0.6,0.25c0,0.233,0,0.583,0,1.05c-0.133,0.233-0.05,0.383,0.25,0.45c0.434-0.034,0.95,0.2,1.55,0.7
				c0.4,0.333,0.333,0.85-0.2,1.55c-0.233,0.533-0.6,1.3-1.1,2.3c-0.533,0.967-0.767,1.667-0.7,2.1c0.433,0.533,0.733,1.233,0.9,2.1
				c-0.267,0.966-0.533,1.917-0.8,2.85c-0.167,1.1-0.25,1.767-0.25,2c0,0.067,0.083,0.383,0.25,0.95
				c0.133,0.633,0.284,1.167,0.45,1.6c0.233,0.4,0.2,0.95-0.1,1.65c-0.367,0.633-1.267,1.283-2.7,1.95c-1.5,0.7-2.9,1.333-4.2,1.9
				c-1.333,0.633-3.033,0.7-5.1,0.2c-2.033-0.466-3.667-0.783-4.9-0.95c-1.267-0.133-2.383-0.434-3.35-0.9
				c-1.633-0.7-2.733-1.917-3.3-3.65c-0.1-0.1-0.317-0.667-0.65-1.7c-0.367-1.067-0.617-2.133-0.75-3.2
				c-0.067-1.7-0.067-2.433,0-2.2c0-0.133,0.066-0.717,0.2-1.75c0.133-1.034,0.2-1.75,0.2-2.15c0.167-0.833,0.517-1.9,1.05-3.2
				c0.233-1.067,0.45-1.684,0.65-1.85c0.133-0.433-0.033-1.25-0.5-2.45c-0.1-0.267-0.25-0.633-0.45-1.1
				c-0.133,0.133-0.233,0.216-0.3,0.25l-1.95-2.15l-0.15-0.6c-0.067-0.067-0.833-0.483-2.3-1.25c-1.5-0.767-2.983-1.434-4.45-2
				c-1.667-0.6-3.967-1.7-6.9-3.3c-2.966-1.6-5.05-2.867-6.25-3.8c-0.667-0.6-1.383-1.833-2.15-3.7
				c-0.733-1.767-1.433-3.617-2.1-5.55c-0.633-2-1.233-3.5-1.8-4.5c-0.6-1.033-1.35-2.633-2.25-4.8c-0.933-2.133-1.8-4.3-2.6-6.5
				c-0.733-2.233-1.167-3.95-1.3-5.15c-0.067-1.133-0.233-2.833-0.5-5.1c-0.333-2.233-0.65-4.483-0.95-6.75
				c-0.033-0.167-0.05-0.35-0.05-0.55c-1.333,5.067-1.184,12.05,0.45,20.95c1.667,6.066,3.833,12.183,6.5,18.35
				c2.7,6.233,4,11.65,3.9,16.25c-0.034,4.667-3.383,7.65-10.05,8.95c-7.033,1.067-13.267-0.6-18.7-5
				c-5.434-4.367-9.467-10.633-12.1-18.8c-2.633-8.1-3.283-17.284-1.95-27.55c1.3-10.433,4.1-21.1,8.4-32
				c3.159-7.971,7.342-15.038,12.55-21.2h-54.8v82.3c0,3.667,0.95,7.083,2.85,10.25c1.867,3.167,4.367,5.667,7.5,7.5l108.55,62.7
				c3.233,1.867,6.65,2.8,10.25,2.8c3.667,0,7.1-0.933,10.3-2.8l108.6-62.7c3.2-1.9,5.717-4.433,7.55-7.6
				c1.833-3.167,2.75-6.55,2.75-10.15v-82.3H89.675c2.151,8.442,3.493,17.842,4.025,28.2c0.3,17.434-0.467,31.75-2.3,42.95
				c-1.9,11.167-3.95,19.533-6.15,25.1c-2.2,5.6-3.65,8.65-4.35,9.15C79.767-88.433,78.1-87.5,75.9-86.6z M2.1-158.8
				c-3.033,0.367-6.517,0.65-10.45,0.85c-3.867,0.267-7.483,0.434-10.85,0.5h-0.05c-0.133,0-1.183-0.066-3.15-0.2
				c-2.033-0.1-4.184-0.217-6.45-0.35c-0.367,0-0.7-0.017-1-0.05c0,0.267,0,0.533,0,0.8c0.133,1.267,0.417,2.817,0.85,4.65
				c0.433,1.9,1,3.55,1.7,4.95c0.633,1.267,1.333,3.167,2.1,5.7c0.633-0.4,1.3-0.816,2-1.25c1.567-0.966,2.9-1.683,4-2.15
				c0.233-0.1,0.45-0.167,0.65-0.2c0.033,0,0.083-0.017,0.15-0.05c0.667-0.533,1.15-0.867,1.45-1c0.3-0.066,0.684-0.066,1.15,0
				c0.633,0,1.7-0.066,3.2-0.2c1.467-0.133,2.9-0.35,4.3-0.65c1.333-0.333,2.966-0.733,4.9-1.2c0.833-0.233,1.633-0.417,2.4-0.55
				c0.1-0.867,0.5-1.917,1.2-3.15c0.733-1.233,2.517-3.55,5.35-6.95C4.617-159.133,3.467-158.967,2.1-158.8z M10.15-164.75
				c3.033-3.333,6.017-6.117,8.95-8.35c3.267-2.6,6.35-5.633,9.25-9.1c1.233-1.433,2.667-4.433,4.3-9
				c0.354-1.009,0.762-2.209,1.225-3.6h-23.65c-0.05,2.992-0.075,5.942-0.075,8.85c0,1.367,0,2.733,0,4.1
				c0.033,4.467,0.233,7.567,0.6,9.3c0.367,2.5,0.183,5.033-0.55,7.6C10.167-164.917,10.15-164.85,10.15-164.75z"/>
		</g>
	</g>
	<g id="Layer_2_3_">
		<g>
			<g>
				<path fill-rule="evenodd" clip-rule="evenodd" fill="#FFFFFF" d="M126.4-102.35c1.833-3.167,2.75-6.55,2.75-10.15v-82.3H-129.2
					v82.3c0,3.667,0.95,7.083,2.85,10.25c1.867,3.167,4.367,5.667,7.5,7.5l108.55,62.7c3.233,1.867,6.65,2.8,10.25,2.8
					c3.667,0,7.1-0.933,10.3-2.8l108.6-62.7C122.05-96.65,124.567-99.183,126.4-102.35z"/>
			</g>
			<g>
				<path fill-rule="evenodd" clip-rule="evenodd" fill="#FFFFFF" d="M-126.6-249.25c-1.833,3.167-2.75,6.55-2.75,10.15v82.3H129
					v-82.3c0-3.667-0.95-7.083-2.85-10.25c-1.867-3.167-4.367-5.667-7.5-7.5L10.1-319.55c-3.233-1.867-6.65-2.8-10.25-2.8
					c-3.667,0-7.1,0.933-10.3,2.8l-108.6,62.7C-122.25-254.95-124.767-252.417-126.6-249.25z"/>
			</g>
		</g>
	</g>
	<g id="Layer_4_2_">
		<g>
			<path fill-rule="evenodd" clip-rule="evenodd" fill="#A10000" d="M-24.018-83.021c1.366,0.169,3.168,0.528,5.408,1.077
				c2.211,0.507,4.035,0.437,5.471-0.211c1.451-0.648,2.971-1.345,4.563-2.091c1.605-0.718,2.584-1.444,2.936-2.176
				c0.352-0.761,0.416-1.345,0.19-1.753c-0.197-0.465-0.38-1.028-0.549-1.69c-0.169-0.648-0.261-1.007-0.275-1.077
				c0.014-0.254,0.113-0.979,0.296-2.176c0.295-0.986,0.578-2.014,0.845-3.084c-0.169-0.929-0.507-1.697-1.014-2.302
				c-0.028-0.437,0.239-1.197,0.803-2.281c0.549-1.099,0.958-1.93,1.225-2.493c0.578-0.774,0.641-1.352,0.19-1.732
				c-0.634-0.493-1.204-0.725-1.711-0.697c-0.295-0.07-0.38-0.239-0.253-0.507c-0.028-0.507-0.021-0.894,0.021-1.162l-0.676-0.275
				l-0.211-1.31c0.014-0.028,0.049-0.099,0.106-0.211l4.098-4.774l1.162,2.26c0,0.07,0.225,0.127,0.676,0.169
				c0.451,0.056,1.105-0.253,1.965-0.929c0.803-0.732,1.162-1.282,1.077-1.648c-0.07-0.38-0.141-0.57-0.211-0.57
				c-0.028-0.169-0.387-0.753-1.077-1.753c-0.676-0.972-1.472-1.331-2.387-1.077c-0.464,0.31-1.267,1.211-2.408,2.704
				c-1.127,1.493-2.183,2.937-3.169,4.331c-0.183-0.225-0.268-0.345-0.253-0.359c0.014-0.099,0.021-0.599,0.021-1.5
				c-0.014-0.916-0.239-1.76-0.676-2.535c-0.493-0.647-1.07-0.929-1.732-0.845c-0.647,0.084-1.225,0.148-1.732,0.19
				c-0.634,0-1.605-0.091-2.915-0.274c-1.296-0.155-2.091-0.493-2.387-1.014c-0.028-0.042-0.049-0.084-0.063-0.126
				c-0.084-0.338-0.261-0.662-0.528-0.972c-0.437-0.465-1.147-1.247-2.133-2.345c-0.887-0.986-2.063-1.922-3.528-2.81
				c0.268-0.507,0.43-0.824,0.486-0.951l-0.549-3.802c0.113,0-0.218-0.521-0.993-1.563c-0.366-0.493-0.641-1.676-0.824-3.549
				c0.295-0.38,0.605-0.796,0.929-1.246c1.169-1.592,1.965-2.894,2.387-3.908c0.69-1.916,1.979-3.683,3.866-5.302
				c1.605-1.268,2.641-2.126,3.105-2.577c1.845-0.183,3.823-0.781,5.936-1.795c1.535-0.521,3.246-1.035,5.133-1.542
				c1.873-0.493,3.563-0.88,5.07-1.162c1.887-0.394,3.852-0.993,5.894-1.795c1.577-0.634,2.591-1.049,3.042-1.246
				c1.409,0.929,2.479,1.725,3.211,2.387c0.465,0.395,1.239,1.084,2.324,2.07c0.535,0.465,0.958,0.789,1.268,0.972l-0.021,0.021
				c-0.028,0.028-0.042,0.078-0.042,0.148c0.084-0.014,0.176-0.028,0.274-0.042c0.127,0.07,0.232,0.105,0.317,0.105l0.063-0.105
				c0-0.014-0.014-0.042-0.042-0.085c0.986-0.239,2.458-0.76,4.415-1.563c2.451-1.014,3.985-1.655,4.605-1.922
				c0.155,0.042,0.324-0.042,0.507-0.253c0.211-0.226,0.373-0.507,0.486-0.845c0.24-0.31,0.605-0.845,1.099-1.605
				c0.042-0.042,0.197-0.226,0.465-0.549l2.45,0.528l1.542,7.035c-0.084,0.422,0.296,1.232,1.141,2.429
				c0.535,0.451,1.127,1.084,1.774,1.901c0.648,0.789,1,1.225,1.056,1.31l6.211,43.453c-0.014,0.113,0.12,0.62,0.401,1.521
				c0.281,0.887,0.837,1.443,1.668,1.668c0.887,0.084,3.816,0.211,8.788,0.38c4.957,0.169,9.815,0.331,14.576,0.486
				c4.76,0.169,7.309,0.253,7.647,0.253c0.282-0.056,1.612-0.605,3.992-1.647c2.394-1,4.204-2.014,5.429-3.042
				c0.803-0.578,2.394-3.894,4.774-9.95c2.38-6.042,4.584-15.139,6.612-27.292c2.028-12.167,2.873-27.722,2.535-46.664
				c-0.958-19.026-4.45-35.066-10.478-48.121c-6.042-13.041-11.992-22.941-17.85-29.701c-5.901-6.717-9.055-10.09-9.464-10.119
				H31.877c0.225,0.099,1.387,2.359,3.485,6.781c2.084,4.38,3.689,10.245,4.816,17.597c1.141,7.351,0.38,15.498-2.282,24.44
				c-1.746,5.45-3.119,9.569-4.119,12.358c-1.774,4.943-3.331,8.21-4.668,9.801c-3.112,3.746-6.464,7.035-10.055,9.865
				c-3.183,2.437-6.429,5.464-9.738,9.083c0.028-0.084,0.056-0.169,0.084-0.253c0.831-2.76,1.014-5.5,0.549-8.217
				c-0.366-1.916-0.578-5.302-0.634-10.161c-0.014-1.464-0.014-2.929,0-4.394c0-3.464,0.049-6.964,0.148-10.499
				c0.155-5.042,0.373-8.801,0.655-11.28c0.324-2.493,0.908-6.048,1.753-10.667c0.859-4.633,1.676-8.894,2.45-12.78
				c0.747-3.873,1.148-5.929,1.204-6.168c0.014-0.127-0.345-0.465-1.077-1.014c-0.38-0.268-0.859-0.599-1.437-0.993
				c-1.014-0.507-2.232-0.979-3.655-1.415c-1.394-0.437-2.162-0.662-2.302-0.676c-0.099-0.014-0.19-0.035-0.275-0.063
				c0.057-0.042,0.12-0.085,0.19-0.127l0.296-0.063c0.225-0.056,0.852-0.183,1.88-0.38c1.042-0.253,2.134-0.781,3.274-1.584
				c1.155-0.803,2.837-1.676,5.048-2.62c2.338-0.845,4.647-1.239,6.929-1.183c2.295,0.057,4.091,0.099,5.387,0.127
				c1.197-0.169,2.042-0.747,2.535-1.732c0.479-0.972,0.704-1.528,0.676-1.669c0.028,0.084-1.894-0.528-5.767-1.838
				c-1.38-0.465-3.268-0.88-5.662-1.246c-2.408-0.366-4.71-0.655-6.907-0.866c-2.183-0.211-3.669-0.317-4.458-0.317
				c-1.113,0.07-2.352,0.401-3.718,0.993c-1.352,0.578-2.084,0.908-2.197,0.993v-1.204h-11.28c-0.085,0.113-0.085,0.838,0,2.176
				c0.112,0.859,0.26,2.338,0.443,4.436c0.211,2.099,0.324,3.268,0.338,3.507c0.042,0.07,0.091,0.134,0.148,0.19h-1.289
				c0.014,0.099,0.084,0.634,0.211,1.606c0.112,1,0.155,1.95,0.126,2.852c-0.014,0.253-0.056,0.62-0.126,1.099
				c-0.197,1.324-0.557,3.535-1.078,6.633c-0.732,4.323-1.458,8.534-2.176,12.632c-0.366,2.07-0.641,3.655-0.824,4.753
				c-0.352-0.662-0.901-1.401-1.648-2.218c-0.845-0.915-1.781-2.274-2.81-4.077c-0.901-1.676-1.915-3.831-3.042-6.464
				c-1.113-2.634-2.091-5.021-2.937-7.162c-0.816-2.126-1.239-3.253-1.268-3.38c-0.183-0.141-1.07,0-2.661,0.423
				c0.324-0.803,0.718-1.753,1.183-2.852c0.479-1.098,1.282-2.324,2.408-3.675c1.676-1.958,3.056-3.373,4.14-4.246
				s2.324-1.387,3.718-1.542c1.268-0.352,2.028-1.225,2.282-2.62c0.282-1.38,0.387-2.169,0.317-2.366
				c0.014-0.042-0.458-0.148-1.416-0.317c-0.943-0.155-2.401-0.014-4.373,0.422c-2.281,0.662-5.162,1.88-8.64,3.655
				c-3.464,1.774-5.767,3.027-6.907,3.76c-0.887,0.704-1.732,1.676-2.535,2.915c-0.803,1.24-1.232,1.93-1.289,2.07l-0.676-1.014
				l-5.873,3.908v-3.591l9.168-9.146h-29.13l9.168,9.146v29.046c-8.604,1.859-15.984,5.654-22.138,11.386
				c-8.717,8.098-15.4,18.026-20.047,29.785c-4.676,11.801-7.731,23.377-9.168,34.728c-1.394,11.14-0.662,21.132,2.197,29.976
				c2.859,8.872,7.239,15.681,13.139,20.427c5.887,4.76,12.661,6.577,20.322,5.45c7.21-1.437,10.858-4.683,10.942-9.738
				c0.099-5.014-1.317-10.9-4.246-17.66c-2.915-6.731-5.267-13.372-7.056-19.92c-1.789-9.717-1.964-17.329-0.528-22.835
				c0.028,0.211,0.056,0.422,0.084,0.634c0.31,2.437,0.633,4.879,0.972,7.33c0.31,2.45,0.514,4.309,0.612,5.577
				c0.113,1.282,0.592,3.12,1.437,5.514c0.831,2.394,1.753,4.76,2.768,7.098c1.014,2.338,1.831,4.077,2.45,5.218
				c0.592,1.112,1.253,2.732,1.986,4.858s1.493,4.168,2.281,6.126c0.789,1.972,1.542,3.303,2.26,3.993
				c1.338,1,3.605,2.366,6.802,4.098c3.211,1.718,5.717,2.915,7.52,3.591c1.634,0.634,3.246,1.359,4.837,2.176
				c1.578,0.845,2.43,1.303,2.556,1.373l0.127,0.592l2.176,2.366c0.028-0.028,0.105-0.126,0.232-0.296
				c0.239,0.536,0.422,0.958,0.549,1.268c0.507,1.282,0.697,2.148,0.57,2.599c-0.239,0.197-0.479,0.873-0.718,2.028
				c-0.578,1.422-0.972,2.584-1.183,3.485c0.014,0.437-0.042,1.218-0.169,2.345c-0.141,1.127-0.226,1.761-0.254,1.901
				c-0.098-0.268-0.098,0.535,0,2.408c0.169,1.169,0.444,2.324,0.824,3.464c0.38,1.126,0.599,1.739,0.655,1.838
				c0.62,1.887,1.831,3.218,3.633,3.992C-26.581-83.507-25.384-83.19-24.018-83.021z M-22.54-159.322
				c-1.197,0.507-2.668,1.303-4.415,2.387c-0.747,0.465-1.458,0.916-2.133,1.352c-0.859-2.802-1.62-4.879-2.282-6.231
				c-0.76-1.549-1.373-3.331-1.837-5.344c-0.479-2.014-0.789-3.718-0.93-5.112c-0.014-0.282-0.028-0.563-0.042-0.845
				c0.352,0.028,0.725,0.049,1.119,0.063c2.493,0.141,4.831,0.268,7.014,0.38c2.155,0.113,3.302,0.169,3.443,0.169
				c0.028,0,0.049,0,0.063,0c3.633-0.028,7.57-0.183,11.809-0.465c4.253-0.267,8.027-0.591,11.323-0.972
				c1.493-0.183,2.725-0.366,3.696-0.549c-3.042,3.704-4.957,6.231-5.746,7.583c-0.76,1.324-1.19,2.458-1.289,3.401
				c-0.859,0.183-1.739,0.387-2.641,0.613c-2.084,0.521-3.858,0.958-5.323,1.31c-1.507,0.31-3.084,0.535-4.731,0.676
				c-1.62,0.141-2.761,0.204-3.422,0.19c-0.521-0.042-0.951-0.021-1.289,0.063c-0.31,0.099-0.824,0.437-1.542,1.014
				c-0.057,0.042-0.113,0.084-0.169,0.127C-22.103-159.47-22.328-159.407-22.54-159.322z M-42.692-232.455
				c-0.183,0-0.366,0.007-0.549,0.021v-7.689c0.141,0.169,0.296,0.352,0.465,0.549c1.549,1.816,3.183,3.781,4.901,5.894
				c0.521,0.62,0.993,1.197,1.415,1.732C-38.446-232.229-40.523-232.398-42.692-232.455z M-43.241-244.517v-5.154
				c1.028,1.239,1.831,2.232,2.408,2.979C-41.749-245.918-42.551-245.192-43.241-244.517z M21.082-155.436
				c-0.014-0.38-0.091-0.774-0.232-1.183c1.789,0.38,3.295,0.705,4.521,0.972l0.211,0.042c-0.352,0.296-0.626,0.521-0.824,0.676
				c-0.169,0-0.669,0.007-1.5,0.021l-2.387,0.105C21.012-155.013,21.082-155.224,21.082-155.436z"/>
		</g>
	</g>
</symbol>
<g id="Layer_1">
</g>
<g id="Layer_2">
	
		<use xlink:href="#newLog"  width="309.15" height="349.4" x="-153.2" y="-351.15" transform="matrix(1.1643 0 0 -1.1643 223.6499 10.5498)" overflow="visible"/>
</g>
</svg>
