<?xml version="1.0" encoding="utf-8"?>
<!-- Generator: Adobe Illustrator 15.0.0, SVG Export Plug-In . SVG Version: 6.00 Build 0)  -->
<!DOCTYPE svg PUBLIC "-//W3C//DTD SVG 1.1//EN" "http://www.w3.org/Graphics/SVG/1.1/DTD/svg11.dtd">
<svg version="1.1" xmlns="http://www.w3.org/2000/svg" xmlns:xlink="http://www.w3.org/1999/xlink" x="0px" y="0px" width="450px"
	 height="450px" viewBox="0 0 450 450" enable-background="new 0 0 450 450" xml:space="preserve">
<symbol  id="logo_x5F_fs_FLM_x5F_FRAME_x5F_0" viewBox="-153.2 -351.15 309.15 349.4">
	<g>
		<g id="Layer_1_3_">
			<path fill-rule="evenodd" clip-rule="evenodd" fill="#A10000" d="M143.65-80.1c3.8-2.233,6.817-5.267,9.05-9.1
				c2.167-3.8,3.25-7.867,3.25-12.2v-150.1c0-4.333-1.083-8.417-3.25-12.25c-2.233-3.8-5.25-6.833-9.05-9.1L13.75-347.9
				c-3.833-2.167-7.917-3.25-12.25-3.25c-4.4,0-8.517,1.083-12.35,3.25l-130,75.05c-3.8,2.2-6.816,5.2-9.05,9
				c-2.2,3.833-3.3,7.95-3.3,12.35v150.1c0,4.4,1.1,8.5,3.3,12.3c2.233,3.833,5.25,6.833,9.05,9l129.9,75
				C-7.117-2.867-3-1.75,1.4-1.75c4.333,0,8.417-1.117,12.25-3.35L143.65-80.1z"/>
		</g>
		<g id="Layer_2_3_">
			<g>
				<path fill-rule="evenodd" clip-rule="evenodd" fill="#FFFFFF" d="M10.15-164.75c3.033-3.333,6.017-6.117,8.95-8.35
					c3.267-2.6,6.35-5.633,9.25-9.1c1.233-1.433,2.667-4.433,4.3-9c0.354-1.009,0.762-2.209,1.225-3.6h-23.65
					c-0.05,2.992-0.075,5.942-0.075,8.85c0,1.367,0,2.733,0,4.1c0.033,4.467,0.233,7.567,0.6,9.3c0.367,2.5,0.183,5.033-0.55,7.6
					C10.167-164.917,10.15-164.85,10.15-164.75z M24.35-141.3c0.167-0.167,0.4-0.383,0.7-0.65l-0.2-0.05
					c-1.067-0.233-2.434-0.517-4.1-0.85c0.133,0.333,0.2,0.684,0.2,1.05c0,0.2-0.067,0.4-0.2,0.6l2.2-0.1
					C23.717-141.3,24.183-141.3,24.35-141.3z M72.25-85.05c-0.333,0-2.683-0.083-7.05-0.25c-4.4-0.133-8.867-0.284-13.4-0.45
					c-4.566-0.133-7.267-0.25-8.1-0.35c-0.767-0.2-1.284-0.7-1.55-1.5c-0.233-0.833-0.35-1.316-0.35-1.45L36.05-129
					c-0.033-0.067-0.367-0.483-1-1.25c-0.566-0.733-1.083-1.3-1.55-1.7c-0.8-1.1-1.15-1.85-1.05-2.25L31-140.7l-2.25-0.45
					c-0.267,0.3-0.417,0.467-0.45,0.5c-0.433,0.733-0.767,1.217-1,1.45c-0.1,0.333-0.25,0.6-0.45,0.8
					c-0.167,0.167-0.317,0.233-0.45,0.2c-0.566,0.267-1.967,0.867-4.2,1.8c-1.8,0.733-3.167,1.217-4.1,1.45l0.05,0.05l-0.05,0.15
					c-0.1,0-0.217-0.05-0.35-0.15c-0.067,0.033-0.15,0.05-0.25,0.05c0-0.066,0.017-0.1,0.05-0.1c-0.233-0.2-0.6-0.517-1.1-0.95
					c-1-0.9-1.717-1.533-2.15-1.9c-0.667-0.6-1.667-1.317-3-2.15c-0.367,0.167-1.283,0.534-2.75,1.1
					c-1.867,0.733-3.683,1.283-5.45,1.65c-1.367,0.267-2.917,0.617-4.65,1.05c-1.733,0.467-3.317,0.95-4.75,1.45
					c-1.934,0.934-3.75,1.483-5.45,1.65c-0.4,0.433-1.35,1.216-2.85,2.35c-1.767,1.5-2.95,3.133-3.55,4.9
					c-0.4,0.933-1.117,2.133-2.15,3.6c-0.333,0.4-0.617,0.767-0.85,1.1c0.1,1.767,0.333,2.867,0.7,3.3c0.7,0.966,1,1.45,0.9,1.45
					l0.55,3.5c-0.1,0.133-0.25,0.417-0.45,0.85c1.367,0.833,2.434,1.7,3.2,2.6c0.933,1.033,1.6,1.75,2,2.15
					c0.267,0.3,0.417,0.6,0.45,0.9c0.033,0.033,0.05,0.083,0.05,0.15c0.3,0.467,1.05,0.767,2.25,0.9
					c1.167,0.167,2.05,0.25,2.65,0.25c0.467-0.034,1-0.1,1.6-0.2c0.633-0.067,1.167,0.2,1.6,0.8c0.4,0.7,0.6,1.467,0.6,2.3
					c0,0.833,0,1.3,0,1.4c0,0.033,0.083,0.133,0.25,0.3c0.867-1.267,1.833-2.583,2.9-3.95c1.066-1.333,1.816-2.167,2.25-2.5
					c0.833-0.2,1.55,0.133,2.15,1c0.633,0.933,0.967,1.483,1,1.65c0.1,0,0.167,0.183,0.2,0.55c0.066,0.3-0.267,0.8-1,1.5
					c-0.8,0.6-1.417,0.883-1.85,0.85c-0.4-0.033-0.6-0.1-0.6-0.2l-1.05-2.05l-3.8,4.35l-0.05,0.2l0.2,1.25l0.6,0.25
					c0,0.233,0,0.583,0,1.05c-0.133,0.233-0.05,0.383,0.25,0.45c0.434-0.034,0.95,0.2,1.55,0.7c0.4,0.333,0.333,0.85-0.2,1.55
					c-0.233,0.533-0.6,1.3-1.1,2.3c-0.533,0.967-0.767,1.667-0.7,2.1c0.433,0.533,0.733,1.233,0.9,2.1
					c-0.267,0.966-0.533,1.917-0.8,2.85c-0.167,1.1-0.25,1.767-0.25,2c0,0.067,0.083,0.383,0.25,0.95
					c0.133,0.633,0.284,1.167,0.45,1.6c0.233,0.4,0.2,0.95-0.1,1.65c-0.367,0.633-1.267,1.283-2.7,1.95c-1.5,0.7-2.9,1.333-4.2,1.9
					c-1.333,0.633-3.033,0.7-5.1,0.2c-2.033-0.466-3.667-0.783-4.9-0.95c-1.267-0.133-2.383-0.434-3.35-0.9
					c-1.633-0.7-2.733-1.917-3.3-3.65c-0.1-0.1-0.317-0.667-0.65-1.7c-0.367-1.067-0.617-2.133-0.75-3.2
					c-0.067-1.7-0.067-2.433,0-2.2c0-0.133,0.066-0.717,0.2-1.75c0.133-1.034,0.2-1.75,0.2-2.15c0.167-0.833,0.517-1.9,1.05-3.2
					c0.233-1.067,0.45-1.684,0.65-1.85c0.133-0.433-0.033-1.25-0.5-2.45c-0.1-0.267-0.25-0.633-0.45-1.1
					c-0.133,0.133-0.233,0.216-0.3,0.25l-1.95-2.15l-0.15-0.6c-0.067-0.067-0.833-0.483-2.3-1.25c-1.5-0.767-2.983-1.434-4.45-2
					c-1.667-0.6-3.967-1.7-6.9-3.3c-2.966-1.6-5.05-2.867-6.25-3.8c-0.667-0.6-1.383-1.833-2.15-3.7
					c-0.733-1.767-1.433-3.617-2.1-5.55c-0.633-2-1.233-3.5-1.8-4.5c-0.6-1.033-1.35-2.633-2.25-4.8c-0.933-2.133-1.8-4.3-2.6-6.5
					c-0.733-2.233-1.167-3.95-1.3-5.15c-0.067-1.133-0.233-2.833-0.5-5.1c-0.333-2.233-0.65-4.483-0.95-6.75
					c-0.033-0.167-0.05-0.35-0.05-0.55c-1.333,5.067-1.184,12.05,0.45,20.95c1.667,6.066,3.833,12.183,6.5,18.35
					c2.7,6.233,4,11.65,3.9,16.25c-0.034,4.667-3.383,7.65-10.05,8.95c-7.033,1.067-13.267-0.6-18.7-5
					c-5.434-4.367-9.467-10.633-12.1-18.8c-2.633-8.1-3.283-17.284-1.95-27.55c1.3-10.433,4.1-21.1,8.4-32
					c3.159-7.971,7.342-15.038,12.55-21.2h-54.8v82.3c0,3.667,0.95,7.083,2.85,10.25c1.867,3.167,4.367,5.667,7.5,7.5l108.55,62.7
					c3.233,1.867,6.65,2.8,10.25,2.8c3.667,0,7.1-0.933,10.3-2.8l108.6-62.7c3.2-1.9,5.717-4.433,7.55-7.6
					c1.833-3.167,2.75-6.55,2.75-10.15v-82.3H89.675c2.151,8.442,3.493,17.842,4.025,28.2c0.3,17.434-0.467,31.75-2.3,42.95
					c-1.9,11.167-3.95,19.533-6.15,25.1c-2.2,5.6-3.65,8.65-4.35,9.15c-1.133,0.967-2.8,1.9-5,2.8
					C73.733-85.633,72.517-85.117,72.25-85.05z M2.1-158.8c-3.033,0.367-6.517,0.65-10.45,0.85c-3.867,0.267-7.483,0.434-10.85,0.5
					h-0.05c-0.133,0-1.183-0.066-3.15-0.2c-2.033-0.1-4.184-0.217-6.45-0.35c-0.367,0-0.7-0.017-1-0.05c0,0.267,0,0.533,0,0.8
					c0.133,1.267,0.417,2.817,0.85,4.65c0.433,1.9,1,3.55,1.7,4.95c0.633,1.267,1.333,3.167,2.1,5.7c0.633-0.4,1.3-0.816,2-1.25
					c1.567-0.966,2.9-1.683,4-2.15c0.233-0.1,0.45-0.167,0.65-0.2c0.033,0,0.083-0.017,0.15-0.05c0.667-0.533,1.15-0.867,1.45-1
					c0.3-0.066,0.684-0.066,1.15,0c0.633,0,1.7-0.066,3.2-0.2c1.467-0.133,2.9-0.35,4.3-0.65c1.333-0.333,2.966-0.733,4.9-1.2
					c0.833-0.233,1.633-0.417,2.4-0.55c0.1-0.867,0.5-1.917,1.2-3.15c0.733-1.233,2.517-3.55,5.35-6.95
					C4.617-159.133,3.467-158.967,2.1-158.8z"/>
			</g>
		</g>
		<g id="Layer_3_2_">
		</g>
		<g id="Layer_4_2_">
			<g>
				<path fill-rule="evenodd" clip-rule="evenodd" fill="#FFFFFF" d="M-86.6-227.5c0,0.133-0.033,0.467-0.1,1
					c-0.033,0.5-0.117,0.983-0.25,1.45c-0.1,0.5-0.233,0.75-0.4,0.75c-0.133-0.034-0.25-0.317-0.35-0.85
					c-0.1-0.533-0.183-1.083-0.25-1.65c-0.033-0.6-0.05-0.967-0.05-1.1c-0.1-1.767-0.2-3.283-0.3-4.55c-0.1-1.267-0.2-2.5-0.3-3.7
					c-0.1-1.167-0.183-2.5-0.25-4c-0.033-0.267,0.05-0.45,0.25-0.55c0.167-0.033,0.567-0.05,1.2-0.05c0.533-0.033,0.933-0.033,1.2,0
					c0.3,0,0.45,0.183,0.45,0.55c-0.067,1.467-0.15,2.784-0.25,3.95c-0.1,1.2-0.2,2.467-0.3,3.8
					C-86.367-231.117-86.467-229.467-86.6-227.5z M-107.9-207c0.3,0,0.5-0.083,0.6-0.25c0.167-0.2,0.267-0.633,0.3-1.3
					c0-0.7,0-1.784,0-3.25c0-1.8,0-3.1,0-3.9c-0.067-0.8-0.167-1.316-0.3-1.55s-0.367-0.333-0.7-0.3c-0.7,0-1.533,0-2.5,0
					s-1.917,0-2.85,0c-0.933,0-1.65,0-2.15,0c-0.3,0-0.633-0.017-1-0.05c-0.333-0.066-0.567-0.167-0.7-0.3
					c-0.2-0.233-0.316-0.417-0.35-0.55c-0.034-0.133-0.05-0.433-0.05-0.9c0-1.2,0-2,0-2.4s0-0.667,0-0.8c0-0.1,0-0.35,0-0.75
					c0-0.4,0-1.2,0-2.4c0-0.367,0-0.733,0-1.1c0.033-0.367,0.184-0.65,0.45-0.85c0.267-0.2,0.533-0.3,0.8-0.3
					c0.267-0.033,0.55-0.05,0.85-0.05c0.7,0,1.4,0,2.1,0c0.7,0,1.233,0,1.6,0c0.3,0.067,0.5-0.017,0.6-0.25
					c0.133-0.2,0.2-0.683,0.2-1.45c0-0.767,0-1.966,0-3.6c0-1.6,0-2.75,0-3.45c0-0.733-0.05-1.2-0.15-1.4
					c-0.1-0.2-0.317-0.283-0.65-0.25c-0.3,0-0.767,0-1.4,0s-1.3,0-2,0c-0.367,0-0.733-0.033-1.1-0.1c-0.333,0-0.583-0.033-0.75-0.1
					c-0.333-0.267-0.517-0.583-0.55-0.95c0-0.367,0-0.8,0-1.3c0-1.467,0-2.75,0-3.85c0-1.133,0-2.267,0-3.4c0-1.167,0-2.55,0-4.15
					c0-1.567,0-3.533,0-5.9c0.033-0.5-0.066-0.85-0.3-1.05c-0.267-0.233-0.85-0.35-1.75-0.35c-0.9-0.034-2.333-0.05-4.3-0.05
					c-1.566,0-2.7,0.017-3.4,0.05c-0.667,0-1.083,0.117-1.25,0.35c-0.2,0.2-0.283,0.55-0.25,1.05c0,4.467,0,8.7,0,12.7
					s0,7.917,0,11.75c0,3.8,0,7.7,0,11.7s0,8.233,0,12.7c0,0.466,0.033,0.8,0.1,1c0.067,0.167,0.2,0.383,0.4,0.65
					c0.233,0.3,0.5,0.483,0.8,0.55c0.267,0.067,0.583,0.1,0.95,0.1c1.067,0,2.434,0,4.1,0c1.633,0,3.383,0,5.25,0s3.633,0,5.3,0
					C-110.317-207-108.967-207-107.9-207z M-27.5-279.2c-0.033-0.1-0.05-0.2-0.05-0.3c-0.133-2.233-0.267-4.317-0.4-6.25
					c-0.133-1.9-0.267-3.733-0.4-5.5c0-0.167,0.1-0.283,0.3-0.35c0.2-0.1,0.5-0.15,0.9-0.15c0.3,0,0.566,0.033,0.8,0.1
					c0.267,0.033,0.383,0.15,0.35,0.35c-0.133,1.5-0.233,2.883-0.3,4.15c-0.1,1.233-0.184,2.467-0.25,3.7c-0.1,1.2-0.2,2.5-0.3,3.9
					c0,0.1-0.017,0.216-0.05,0.35c-0.067,0.133-0.167,0.2-0.3,0.2C-27.367-279-27.467-279.067-27.5-279.2z M-27.2-266.95
					c0.633,0,1.083-0.05,1.35-0.15s0.434-0.367,0.5-0.8c0.434-3.4,0.833-6.55,1.2-9.45s0.717-5.717,1.05-8.45
					c0.333-2.733,0.684-5.567,1.05-8.5c0.367-2.9,0.783-6.083,1.25-9.55c0.033-0.267-0.067-0.433-0.3-0.5
					c-0.2-0.066-0.667-0.083-1.4-0.05c-0.733-0.033-1.217-0.017-1.45,0.05c-0.267,0.067-0.417,0.267-0.45,0.6
					c-0.2,1.467-0.4,2.9-0.6,4.3c-0.167,1.4-0.367,2.833-0.6,4.3c-0.033,0.233-0.2,0.367-0.5,0.4c-0.3,0.067-0.667,0.1-1.1,0.1
					c-0.533,0-0.917-0.033-1.15-0.1c-0.3-0.033-0.45-0.167-0.45-0.4c-0.2-1.467-0.367-2.9-0.5-4.3c-0.133-1.4-0.267-2.867-0.4-4.4
					c0-0.267-0.15-0.433-0.45-0.5c-0.333-0.066-0.917-0.083-1.75-0.05c-0.434,0-0.783,0.033-1.05,0.1
					c-0.3,0.033-0.433,0.167-0.4,0.4c0.533,4.6,1.067,8.883,1.6,12.85c0.5,4,1,7.883,1.5,11.65c0.5,3.8,1,7.683,1.5,11.65
					c0.033,0.367,0.15,0.583,0.35,0.65C-28.2-267-27.8-266.95-27.2-266.95z M-70-281.1c0.633-0.033,1.133-0.267,1.5-0.7
					c0.4-0.434,0.617-0.967,0.65-1.6c0.067-0.467,0.083-0.867,0.05-1.2c-0.067-0.367-0.25-0.667-0.55-0.9
					c-0.3-0.233-0.85-0.383-1.65-0.45c-0.7-0.066-1.267,0.167-1.7,0.7c-0.433,0.567-0.617,1.217-0.55,1.95
					c0.033,0.6,0.2,1.117,0.5,1.55C-71.45-281.283-70.867-281.067-70-281.1z M-51.75-270.8c-0.4-0.3-0.7-0.667-0.9-1.1
					c-0.233-0.434-0.35-0.85-0.35-1.25c0-2.533,0-5.233,0-8.1c0-2.833,0-5.683,0-8.55s0-5.6,0-8.2c-0.033-0.7,0.15-1.35,0.55-1.95
					c0.4-0.633,1.133-0.966,2.2-1c0.667,0.034,1.183,0.2,1.55,0.5c0.4,0.3,0.684,0.667,0.85,1.1c0.133,0.4,0.2,0.8,0.2,1.2
					c0,1.467,0,2.95,0,4.45c0,1.467,0,3.05,0,4.75c0,0.133,0,0.267,0,0.4c-0.033,0.133-0.1,0.267-0.2,0.4
					c-0.233,0.133-0.566,0.183-1,0.15c-0.4-0.033-0.75-0.05-1.05-0.05c-0.2-0.034-0.333,0.083-0.4,0.35
					c-0.067,0.233-0.1,0.633-0.1,1.2c0,0.6,0.033,1.017,0.1,1.25c0.033,0.267,0.15,0.4,0.35,0.4c0.534,0,1.2,0.017,2,0.05
					c0.833,0,1.617,0.017,2.35,0.05c0.733,0,1.217-0.017,1.45-0.05c0.1-0.034,0.133-0.117,0.1-0.25c0-0.133-0.017-0.267-0.05-0.4
					c0-2.267,0-4.316,0-6.15c0-1.867,0-3.717,0-5.55c0-1.833,0-3.867,0-6.1c0-0.167,0-0.35,0-0.55c-0.033-0.2-0.117-0.383-0.25-0.55
					c-0.133-0.133-0.3-0.167-0.5-0.1c-0.2,0.067-0.417,0.1-0.65,0.1c-0.2,0.033-0.333,0.25-0.4,0.65c-0.033,0.4-0.233,0.733-0.6,1
					c-0.167,0.1-0.383,0.017-0.65-0.25c-0.267-0.3-0.633-0.617-1.1-0.95c-0.5-0.3-1.167-0.467-2-0.5
					c-1.533,0.033-2.75,0.383-3.65,1.05c-0.9,0.667-1.55,1.483-1.95,2.45s-0.6,1.867-0.6,2.7c0,4.067,0,8.2,0,12.4
					c0,4.233,0,8.4,0,12.5c-0.033,0.733,0.15,1.583,0.55,2.55c0.333,0.967,0.967,1.817,1.9,2.55c0.9,0.767,2.15,1.167,3.75,1.2
					c1.533-0.033,2.75-0.433,3.65-1.2c0.9-0.767,1.55-1.633,1.95-2.6c0.4-0.967,0.583-1.8,0.55-2.5c0-0.367,0-0.767,0-1.2
					s0-0.833,0-1.2c0.033-0.267-0.1-0.433-0.4-0.5c-0.267-0.1-0.75-0.15-1.45-0.15c-0.667,0-1.1,0.033-1.3,0.1
					c-0.267,0.067-0.383,0.217-0.35,0.45c0,0.367-0.017,0.8-0.05,1.3c0,0.467,0,0.9,0,1.3c0,0.4-0.1,0.817-0.3,1.25
					c-0.233,0.467-0.55,0.85-0.95,1.15c-0.4,0.3-0.85,0.466-1.35,0.5C-50.817-270.333-51.317-270.5-51.75-270.8z M-77.6-233.4
					c0.667-3.833,1.367-7.817,2.1-11.95s1.55-8.633,2.45-13.5c0-0.267-0.35-0.45-1.05-0.55c-0.7-0.1-1.517-0.15-2.45-0.15
					c-0.934-0.034-1.75-0.05-2.45-0.05c-1.167-0.033-2.217-0.017-3.15,0.05c-1,0.1-1.55,0.383-1.65,0.85
					c-0.2,1.367-0.383,2.567-0.55,3.6c-0.133,1.033-0.267,2.067-0.4,3.1c-0.133,1-0.3,2.167-0.5,3.5
					c-0.033,0.367-0.217,0.567-0.55,0.6c-0.333,0.033-0.8,0.05-1.4,0.05c-0.7,0-1.233-0.017-1.6-0.05
					c-0.4-0.033-0.617-0.233-0.65-0.6c-0.133-1.367-0.267-2.55-0.4-3.55c-0.1-1.034-0.2-2.067-0.3-3.1s-0.217-2.267-0.35-3.7
					c-0.1-0.367-0.667-0.6-1.7-0.7c-1-0.067-2.133-0.083-3.4-0.05c-0.433,0-1.083,0.017-1.95,0.05c-0.833,0-1.617,0.05-2.35,0.15
					s-1.1,0.267-1.1,0.5c0.8,4.9,1.533,9.417,2.2,13.55c0.667,4.133,1.316,8.133,1.95,12c0.6,3.867,1.2,7.833,1.8,11.9
					c0.633,4.133,1.3,8.583,2,13.35c0.1,0.367,0.5,0.633,1.2,0.8c0.7,0.167,1.467,0.267,2.3,0.3c0.9,0.033,1.633,0.05,2.2,0.05
					c0.633,0,1.367-0.017,2.2-0.05c0.8-0.067,1.533-0.2,2.2-0.4c0.633-0.2,1-0.5,1.1-0.9c0.8-4.767,1.533-9.184,2.2-13.25
					C-78.95-225.583-78.267-229.533-77.6-233.4z M-49.7-208.5c0-1.6,0-4.15,0-7.65s0-7.6,0-12.3c0-4.667,0-9.583,0-14.75
					c0-5.167,0-10.2,0-15.1c0.034-0.4-0.033-0.7-0.2-0.9c-0.2-0.167-0.717-0.283-1.55-0.35c-0.833-0.034-2.2-0.05-4.1-0.05
					c-1.767,0-3.034,0.017-3.8,0.05c-0.767,0.033-1.217,0.133-1.35,0.3c-0.2,0.167-0.283,0.433-0.25,0.8c0,4.667,0,9.067,0,13.2
					s0,8.167,0,12.1c0,3.933,0,7.917,0,11.95c0,4.034,0,8.284,0,12.75c-0.033,0.434,0.05,0.75,0.25,0.95
					c0.167,0.2,0.633,0.317,1.4,0.35c0.767,0.033,2.017,0.05,3.75,0.05c1.933,0,3.316-0.017,4.15-0.05
					c0.833-0.067,1.333-0.2,1.5-0.4C-49.733-207.75-49.667-208.067-49.7-208.5z M-30.05-207c1.867,0,3.233-0.05,4.1-0.15
					c0.867-0.067,1.4-0.2,1.6-0.4c0.233-0.233,0.333-0.55,0.3-0.95c0-3.933,0-7.817,0-11.65c0-3.8,0-7.383,0-10.75
					c0-3.4,0-6.417,0-9.05c0-2.6,0-4.667,0-6.2c0-0.533,0.017-1.067,0.05-1.6s0.15-0.883,0.35-1.05c0.2-0.1,0.517-0.167,0.95-0.2
					c0.434-0.067,0.867-0.1,1.3-0.1c1.066,0,2.25,0,3.55,0c1.333,0,2.517,0,3.55,0c0.3,0.033,0.533-0.033,0.7-0.2
					c0.133-0.167,0.217-0.617,0.25-1.35c0.033-0.7,0.05-1.85,0.05-3.45c0-1.8-0.017-3.083-0.05-3.85
					c-0.033-0.767-0.117-1.25-0.25-1.45c-0.133-0.167-0.333-0.233-0.6-0.2c-0.833,0-2.05,0-3.65,0s-3.316,0-5.15,0
					c-1.867,0-3.6,0-5.2,0c-1.566,0-2.783,0-3.65,0c-0.6-0.033-1.183-0.033-1.75,0c-0.533,0-0.95,0.1-1.25,0.3
					c-0.267,0.3-0.417,0.683-0.45,1.15c-0.034,0.467-0.034,0.933,0,1.4c0,4.467,0,8.667,0,12.6c0,3.933,0,7.767,0,11.5
					c0,3.767,0,7.6,0,11.5c0,3.933,0,8.15,0,12.65c-0.034,0.333,0.033,0.6,0.2,0.8c0.167,0.233,0.617,0.417,1.35,0.55
					C-32.983-207.05-31.75-207-30.05-207z M63.35-281.1c0.633-0.033,1.133-0.267,1.5-0.7c0.4-0.434,0.617-0.967,0.65-1.6
					c0.067-0.467,0.083-0.867,0.05-1.2c-0.066-0.367-0.25-0.667-0.55-0.9s-0.85-0.383-1.65-0.45c-0.7-0.066-1.267,0.167-1.7,0.7
					c-0.433,0.567-0.617,1.217-0.55,1.95c0.033,0.6,0.2,1.117,0.5,1.55C61.9-281.283,62.483-281.067,63.35-281.1z M38.25-276.1
					c0,0.434,0,0.85,0,1.25c0,0.434,0,0.934,0,1.5c0,0.934,0.2,1.9,0.6,2.9c0.4,0.934,1.05,1.733,1.95,2.4
					c0.9,0.667,2.083,1.017,3.55,1.05c1.367-0.033,2.5-0.383,3.4-1.05c0.9-0.633,1.567-1.434,2-2.4c0.467-0.966,0.7-1.917,0.7-2.85
					c0-0.133,0-0.367,0-0.7c0-0.367,0-0.717,0-1.05c0-0.367,0-0.6,0-0.7c0-0.233-0.15-0.367-0.45-0.4
					c-0.333-0.033-0.817-0.05-1.45-0.05c-0.5,0-0.9,0.017-1.2,0.05c-0.3,0.066-0.45,0.217-0.45,0.45c0,0.1,0,0.333,0,0.7
					s0,0.733,0,1.1s0,0.6,0,0.7c-0.033,0.9-0.316,1.6-0.85,2.1c-0.5,0.5-1.066,0.767-1.7,0.8c-0.767-0.034-1.383-0.35-1.85-0.95
					c-0.5-0.567-0.75-1.2-0.75-1.9c0-0.633,0-1.184,0-1.65c0-0.434,0-0.867,0-1.3c0-0.667,0.2-1.4,0.6-2.2
					c0.4-0.833,0.917-1.7,1.55-2.6c0.6-0.9,1.25-1.817,1.95-2.75c0.8-1.1,1.566-2.25,2.3-3.45c0.733-1.167,1.35-2.383,1.85-3.65
					c0.467-1.3,0.7-2.6,0.7-3.9c0-1.033,0-2.217,0-3.55c-0.034-1.867-0.633-3.367-1.8-4.5c-1.133-1.1-2.6-1.667-4.4-1.7
					c-1.767,0-3.233,0.5-4.4,1.5c-1.133,1-1.717,2.566-1.75,4.7c0,0.1,0,0.367,0,0.8c0,0.467,0,0.917,0,1.35c0,0.433,0,0.716,0,0.85
					c-0.033,0.267,0.083,0.45,0.35,0.55c0.233,0.1,0.683,0.15,1.35,0.15c0.667,0,1.15-0.033,1.45-0.1c0.267-0.1,0.4-0.267,0.4-0.5
					c0-0.133,0-0.417,0-0.85c0-0.433,0-0.867,0-1.3c0-0.4,0-0.667,0-0.8c-0.033-0.7,0.167-1.333,0.6-1.9
					c0.4-0.566,1.067-0.867,2-0.9c0.767,0.033,1.35,0.2,1.75,0.5c0.4,0.333,0.667,0.717,0.8,1.15c0.133,0.434,0.2,0.867,0.2,1.3
					c0,0.633,0,1.233,0,1.8c0,0.533,0,1.033,0,1.5c-0.033,1.4-0.467,2.833-1.3,4.3c-0.833,1.466-1.817,2.966-2.95,4.5
					c-0.767,1.033-1.5,2.1-2.2,3.2c-0.733,1.1-1.333,2.2-1.8,3.3C38.533-278.2,38.283-277.133,38.25-276.1z M4.1-267.1
					c0.267-0.1,0.4-0.333,0.4-0.7c0-4.167,0-8.133,0-11.9c0-3.767,0-7.55,0-11.35c0-3.833,0-7.967,0-12.4
					c0.033-0.4-0.067-0.667-0.3-0.8c-0.2-0.133-0.684-0.183-1.45-0.15c-0.667-0.033-1.117,0.017-1.35,0.15
					c-0.267,0.133-0.383,0.4-0.35,0.8c0,2.267,0,4.383,0,6.35s0,3.95,0,5.95s0,4.117,0,6.35c0,0.733,0,1.517,0,2.35
					c-0.033,0.833-0.066,1.55-0.1,2.15c-0.067,0.6-0.167,0.917-0.3,0.95c-0.167,0-0.3-0.117-0.4-0.35
					c-0.1-0.2-0.183-0.383-0.25-0.55c-0.233-0.933-0.45-1.767-0.65-2.5c-0.2-0.733-0.4-1.45-0.6-2.15
					c-0.2-0.733-0.433-1.55-0.7-2.45c-0.033-0.2-0.1-0.383-0.2-0.55c-0.1-0.167-0.283-0.25-0.55-0.25c-0.233,0-0.4,0.083-0.5,0.25
					c-0.133,0.167-0.216,0.333-0.25,0.5c-0.3,1.2-0.6,2.316-0.9,3.35c-0.3,1.066-0.633,2.3-1,3.7c-0.033,0.2-0.117,0.383-0.25,0.55
					c-0.1,0.2-0.267,0.3-0.5,0.3c-0.1-0.033-0.167-0.35-0.2-0.95c-0.034-0.566-0.05-1.25-0.05-2.05c0-0.833,0-1.6,0-2.3
					c0-2.233,0-4.35,0-6.35s0-3.983,0-5.95s0-4.083,0-6.35c0.033-0.4-0.083-0.667-0.35-0.8c-0.233-0.133-0.683-0.183-1.35-0.15
					c-0.733-0.033-1.217,0.017-1.45,0.15s-0.333,0.4-0.3,0.8c0,4.434,0,8.567,0,12.4c0,3.8,0,7.583,0,11.35c0,3.767,0,7.733,0,11.9
					c0,0.4,0.117,0.633,0.35,0.7c0.233,0.033,0.6,0.05,1.1,0.05c0.4,0,0.717-0.067,0.95-0.2c0.233-0.1,0.433-0.367,0.6-0.8
					c0.2-0.434,0.433-1.083,0.7-1.95c0.567-1.667,1.067-3.167,1.5-4.5c0.434-1.4,0.867-2.783,1.3-4.15
					c0.066-0.133,0.15-0.267,0.25-0.4c0.1-0.133,0.233-0.2,0.4-0.2c0.133,0,0.25,0.067,0.35,0.2c0.133,0.133,0.233,0.267,0.3,0.4
					c0.367,1.1,0.683,2.083,0.95,2.95c0.267,0.867,0.55,1.75,0.85,2.65c0.3,0.867,0.633,1.883,1,3.05
					c0.333,1.233,0.617,2.05,0.85,2.45c0.267,0.4,0.667,0.583,1.2,0.55C3.417-267,3.833-267.033,4.1-267.1z M20.75-270.7
					c-0.033-0.1-0.05-0.316-0.05-0.65c0-1.767,0-3.45,0-5.05c0-1.633,0-3.333,0-5.1c0-0.233,0-0.483,0-0.75
					c0.033-0.267,0.133-0.467,0.3-0.6c0.2-0.133,0.4-0.2,0.6-0.2c0.2-0.034,0.4-0.05,0.6-0.05c0.5,0,0.983,0,1.45,0s0.833,0,1.1,0
					c0.3,0.033,0.5-0.083,0.6-0.35c0.1-0.233,0.133-0.633,0.1-1.2c0.033-0.5,0-0.883-0.1-1.15c-0.1-0.233-0.3-0.333-0.6-0.3
					c-0.233,0-0.583,0-1.05,0c-0.434,0-0.9,0-1.4,0c-0.267,0-0.533-0.017-0.8-0.05c-0.233-0.033-0.417-0.083-0.55-0.15
					c-0.2-0.167-0.317-0.383-0.35-0.65c0-0.233,0-0.533,0-0.9c0-1.4,0-2.7,0-3.9c0-1.233,0-2.45,0-3.65c0-1.2,0-2.5,0-3.9
					c0-0.4,0.017-0.784,0.05-1.15c0.033-0.4,0.1-0.65,0.2-0.75c0.167-0.066,0.4-0.117,0.7-0.15c0.3-0.033,0.617-0.05,0.95-0.05
					c0.733,0,1.567,0,2.5,0s1.783,0,2.55,0c0.3,0,0.5-0.1,0.6-0.3c0.067-0.233,0.1-0.633,0.1-1.2c0-0.567-0.033-0.967-0.1-1.2
					c-0.066-0.2-0.25-0.3-0.55-0.3c-0.8,0-1.667,0-2.6,0s-1.883,0-2.85,0c-0.933,0-1.783,0-2.55,0c-0.434,0-0.85,0-1.25,0
					s-0.7,0.066-0.9,0.2c-0.2,0.2-0.3,0.467-0.3,0.8c-0.033,0.367-0.033,0.717,0,1.05c0,3.167,0,6.117,0,8.85s0,5.4,0,8s0,5.267,0,8
					c0,2.767,0,5.733,0,8.9c0,0.3,0.017,0.533,0.05,0.7c0.033,0.1,0.133,0.25,0.3,0.45c0.167,0.2,0.35,0.333,0.55,0.4
					c0.2,0.033,0.434,0.05,0.7,0.05c1.467,0,2.933,0,4.4,0c1.5,0,2.983,0,4.45,0c0.3-0.033,0.483-0.183,0.55-0.45
					c0.067-0.3,0.1-0.683,0.1-1.15c0-0.533-0.033-0.9-0.1-1.1c-0.066-0.233-0.267-0.35-0.6-0.35c-0.5,0-1.1,0-1.8,0s-1.383,0-2.05,0
					c-0.633,0-1.133,0-1.5,0c-0.233,0-0.467-0.017-0.7-0.05s-0.417-0.1-0.55-0.2C20.85-270.467,20.783-270.6,20.75-270.7z
					 M21.6-212.4c1.133-1.733,1.717-3.8,1.75-6.2c0-0.6,0-1.066,0-1.4c0-0.3,0-0.633,0-1c0-0.333,0-0.833,0-1.5
					c0-0.2-0.333-0.3-1-0.3c-0.7,0-1.883,0-3.55,0c-2.167,0-3.767,0.017-4.8,0.05c-1.033,0.067-1.55,0.183-1.55,0.35
					c0,0.7,0,1.316,0,1.85c0,0.533,0,1.033,0,1.5c0,0.9-0.184,1.566-0.55,2c-0.367,0.433-0.816,0.65-1.35,0.65
					c-0.5,0-0.933-0.217-1.3-0.65c-0.367-0.434-0.55-1.067-0.55-1.9c-0.067-1.633,0.033-2.917,0.3-3.85
					c0.233-0.934,0.783-1.85,1.65-2.75c0.867-0.934,2.25-2.167,4.15-3.7c1.467-1.167,2.9-2.483,4.3-3.95
					c1.433-1.466,2.617-3.316,3.55-5.55c0.9-2.2,1.383-5.05,1.45-8.55c-0.067-3.867-1.283-6.883-3.65-9.05
					c-2.333-2.133-5.5-3.217-9.5-3.25c-2.5,0-4.75,0.5-6.75,1.5c-1.934,0.967-3.483,2.367-4.65,4.2
					c-1.133,1.833-1.716,4.033-1.75,6.6c0,0.7,0,1.383,0,2.05s0,1.4,0,2.2c-0.033,0.233,0.284,0.383,0.95,0.45
					c0.667,0.033,2.033,0.05,4.1,0.05c2.1,0.033,3.65,0.033,4.65,0c1.033-0.034,1.55-0.15,1.55-0.35c0-0.467,0-0.783,0-0.95
					c0-0.2,0-0.367,0-0.5s0-0.367,0-0.7c-0.033-1.833,0.067-3.133,0.3-3.9c0.233-0.733,0.767-1.083,1.6-1.05
					c0.767,0.067,1.283,0.45,1.55,1.15c0.233,0.733,0.35,1.583,0.35,2.55c-0.033,2.3-0.533,4.216-1.5,5.75
					c-0.934,1.466-2.117,2.8-3.55,4c-1.4,1.2-2.8,2.45-4.2,3.75c-1.533,1.5-2.717,2.867-3.55,4.1
					c-0.833,1.267-1.417,2.684-1.75,4.25c-0.333,1.534-0.5,3.483-0.5,5.85c0.034,2.333,0.617,4.367,1.75,6.1
					c1.167,1.733,2.7,3.067,4.6,4c1.934,0.967,4.067,1.467,6.4,1.5c2.4,0,4.55-0.483,6.45-1.45
					C18.933-209.383,20.467-210.7,21.6-212.4z M49.05-232.45c-0.066,1.333-0.167,2.983-0.3,4.95c0,0.133-0.033,0.467-0.1,1
					c-0.033,0.5-0.117,0.983-0.25,1.45c-0.1,0.5-0.233,0.75-0.4,0.75c-0.133-0.034-0.25-0.317-0.35-0.85s-0.183-1.083-0.25-1.65
					c-0.033-0.6-0.05-0.967-0.05-1.1c-0.1-1.767-0.2-3.283-0.3-4.55c-0.1-1.267-0.2-2.5-0.3-3.7c-0.1-1.167-0.183-2.5-0.25-4
					c-0.033-0.267,0.05-0.45,0.25-0.55c0.167-0.033,0.567-0.05,1.2-0.05c0.533-0.033,0.933-0.033,1.2,0c0.3,0,0.45,0.183,0.45,0.55
					c-0.067,1.467-0.15,2.784-0.25,3.95C49.25-235.05,49.15-233.783,49.05-232.45z M53.5-208.3c0.8-4.767,1.533-9.184,2.2-13.25
					c0.7-4.034,1.383-7.983,2.05-11.85c0.667-3.833,1.367-7.817,2.1-11.95s1.55-8.633,2.45-13.5c0-0.267-0.35-0.45-1.05-0.55
					s-1.517-0.15-2.45-0.15c-0.933-0.034-1.75-0.05-2.45-0.05c-1.167-0.033-2.217-0.017-3.15,0.05c-1,0.1-1.55,0.383-1.65,0.85
					c-0.2,1.367-0.383,2.567-0.55,3.6c-0.133,1.033-0.267,2.067-0.4,3.1c-0.133,1-0.3,2.167-0.5,3.5
					c-0.033,0.367-0.217,0.567-0.55,0.6c-0.333,0.033-0.8,0.05-1.4,0.05c-0.7,0-1.233-0.017-1.6-0.05
					c-0.4-0.033-0.617-0.233-0.65-0.6c-0.133-1.367-0.267-2.55-0.4-3.55c-0.1-1.034-0.2-2.067-0.3-3.1
					c-0.1-1.033-0.217-2.267-0.35-3.7c-0.1-0.367-0.667-0.6-1.7-0.7c-1-0.067-2.133-0.083-3.4-0.05c-0.433,0-1.083,0.017-1.95,0.05
					c-0.833,0-1.617,0.05-2.35,0.15c-0.733,0.1-1.1,0.267-1.1,0.5c0.8,4.9,1.533,9.417,2.2,13.55c0.667,4.133,1.317,8.133,1.95,12
					c0.6,3.867,1.2,7.833,1.8,11.9c0.633,4.133,1.3,8.583,2,13.35c0.1,0.367,0.5,0.633,1.2,0.8c0.7,0.167,1.467,0.267,2.3,0.3
					c0.9,0.033,1.633,0.05,2.2,0.05c0.633,0,1.367-0.017,2.2-0.05c0.8-0.067,1.533-0.2,2.2-0.4C53.033-207.6,53.4-207.9,53.5-208.3z
					 M91.3-207c1.633,0,2.983,0,4.05,0c0.3,0,0.5-0.083,0.6-0.25c0.167-0.2,0.267-0.633,0.3-1.3c0-0.7,0-1.784,0-3.25
					c0-1.8,0-3.1,0-3.9c-0.067-0.8-0.167-1.316-0.3-1.55s-0.367-0.333-0.7-0.3c-0.7,0-1.533,0-2.5,0s-1.917,0-2.85,0
					c-0.933,0-1.65,0-2.15,0c-0.3,0-0.633-0.017-1-0.05c-0.333-0.066-0.567-0.167-0.7-0.3c-0.2-0.233-0.316-0.417-0.35-0.55
					c-0.034-0.133-0.05-0.433-0.05-0.9c0-1.2,0-2,0-2.4s0-0.667,0-0.8c0-0.1,0-0.35,0-0.75c0-0.4,0-1.2,0-2.4c0-0.367,0-0.733,0-1.1
					c0.033-0.367,0.184-0.65,0.45-0.85c0.267-0.2,0.533-0.3,0.8-0.3c0.267-0.033,0.55-0.05,0.85-0.05c0.7,0,1.4,0,2.1,0
					c0.7,0,1.233,0,1.6,0c0.3,0.067,0.5-0.017,0.6-0.25c0.133-0.2,0.2-0.683,0.2-1.45c0-0.767,0-1.966,0-3.6c0-1.6,0-2.75,0-3.45
					c0-0.733-0.05-1.2-0.15-1.4c-0.1-0.2-0.317-0.283-0.65-0.25c-0.3,0-0.767,0-1.4,0s-1.3,0-2,0c-0.367,0-0.733-0.033-1.1-0.1
					c-0.333,0-0.583-0.033-0.75-0.1c-0.333-0.267-0.517-0.583-0.55-0.95c0-0.367,0-0.8,0-1.3c0-1.467,0-2.75,0-3.85
					c0-1.133,0-2.267,0-3.4c0-1.167,0-2.55,0-4.15c0-1.567,0-3.533,0-5.9c0.033-0.5-0.066-0.85-0.3-1.05
					c-0.267-0.233-0.85-0.35-1.75-0.35c-0.9-0.034-2.333-0.05-4.3-0.05c-1.566,0-2.7,0.017-3.4,0.05c-0.667,0-1.083,0.117-1.25,0.35
					c-0.2,0.2-0.283,0.55-0.25,1.05c0,4.467,0,8.7,0,12.7s0,7.917,0,11.75c0,3.8,0,7.7,0,11.7s0,8.233,0,12.7
					c0,0.466,0.033,0.8,0.1,1c0.067,0.167,0.2,0.383,0.4,0.65c0.233,0.3,0.5,0.483,0.8,0.55c0.267,0.067,0.583,0.1,0.95,0.1
					c1.067,0,2.434,0,4.1,0c1.633,0,3.383,0,5.25,0S89.633-207,91.3-207z M125.2-207c1.633,0,2.983,0,4.05,0
					c0.3,0,0.5-0.083,0.6-0.25c0.167-0.2,0.267-0.633,0.3-1.3c0-0.7,0-1.784,0-3.25c0-1.8,0-3.1,0-3.9
					c-0.066-0.8-0.167-1.316-0.3-1.55s-0.367-0.333-0.7-0.3c-0.7,0-1.533,0-2.5,0s-1.917,0-2.85,0c-0.933,0-1.65,0-2.15,0
					c-0.3,0-0.633-0.017-1-0.05c-0.333-0.066-0.566-0.167-0.7-0.3c-0.2-0.233-0.317-0.417-0.35-0.55s-0.05-0.433-0.05-0.9
					c0-1.2,0-1.95,0-2.25v-0.95c0-0.3,0-1.067,0-2.3c0-0.333,0-0.667,0-1c0.034-0.367,0.184-0.683,0.45-0.95
					c0.267-0.167,0.533-0.25,0.8-0.25c0.267,0,0.55,0,0.85,0c0.7,0,1.4,0,2.1,0s1.233,0,1.6,0c0.3,0,0.5-0.1,0.6-0.3
					c0.133-0.2,0.2-0.683,0.2-1.45c0-0.767,0-1.967,0-3.6c0-1.567,0-2.717,0-3.45s-0.05-1.2-0.15-1.4s-0.317-0.283-0.65-0.25
					c-0.3,0-0.767,0-1.4,0s-1.3,0-2,0c-0.367,0-0.733-0.017-1.1-0.05c-0.333-0.067-0.583-0.133-0.75-0.2
					c-0.333-0.2-0.517-0.483-0.55-0.85c0-0.367,0-0.8,0-1.3c0-1.167,0-1.967,0-2.4c0-0.4,0-0.633,0-0.7c0-0.033,0-0.067,0-0.1
					s0-0.25,0-0.65c0-0.433,0-1.233,0-2.4c0-0.533,0.017-1.067,0.05-1.6s0.15-0.883,0.35-1.05c0.2-0.1,0.517-0.167,0.95-0.2
					c0.434-0.067,0.867-0.1,1.3-0.1c1.066,0,2.25,0,3.55,0c1.333,0,2.517,0,3.55,0c0.3,0.033,0.534-0.033,0.7-0.2
					c0.133-0.167,0.217-0.617,0.25-1.35c0.033-0.7,0.05-1.85,0.05-3.45c0-1.8-0.017-3.083-0.05-3.85
					c-0.033-0.767-0.117-1.25-0.25-1.45c-0.133-0.167-0.333-0.233-0.6-0.2c-0.833,0-2.05,0-3.65,0s-3.317,0-5.15,0
					c-1.867,0-3.6,0-5.2,0c-1.566,0-2.783,0-3.65,0c-0.6-0.033-1.183-0.033-1.75,0c-0.533,0-0.95,0.1-1.25,0.3
					c-0.267,0.3-0.417,0.683-0.45,1.15c-0.033,0.467-0.033,0.933,0,1.4c0,4.467,0,8.633,0,12.5c0,3.833,0,7.583,0,11.25
					c0,3.633,0,7.383,0,11.25c0,3.833,0,7.983,0,12.45c0,0.466,0.034,0.8,0.1,1c0.067,0.167,0.2,0.383,0.4,0.65
					c0.233,0.3,0.5,0.483,0.8,0.55c0.267,0.067,0.583,0.1,0.95,0.1c1.067,0,2.434,0,4.1,0c1.633,0,3.383,0,5.25,0
					S123.533-207,125.2-207z"/>
			</g>
		</g>
	</g>
</symbol>
<g id="Layer_1">
</g>
<g id="Layer_3">
	
		<use xlink:href="#logo_x5F_fs_FLM_x5F_FRAME_x5F_0"  width="309.15" height="349.4" x="-153.2" y="-351.15" transform="matrix(1.1677 0 0 -1.1677 223.6499 19.25)" overflow="visible"/>
</g>
</svg>
